<svg width="768" height="228" viewBox="0 0 768 228" fill="none" xmlns="http://www.w3.org/2000/svg">
<path d="M690.327 185.842V226.217H646.719V125.279H690.327H723.031H755.738V135.373H766.639V165.654H755.738V185.842H766.639V226.217H723.031V185.842H690.327ZM690.327 145.467V165.654H723.031V145.467H690.327Z" fill="white"/>
<path d="M559.589 185.842V226.217H515.981V135.373H526.883V125.279H592.294H625V135.373H635.902V226.217H592.294V185.842H559.589ZM559.589 145.467V165.654H592.294V145.467H559.589Z" fill="white"/>
<path d="M406.918 216.124V226.217H363.311V125.279H406.918V175.748H417.82V165.654H428.724V155.561H439.625V165.654H450.526V175.748H461.428V125.279H505.036V226.217H461.428V216.124H450.526V206.03H439.625V195.936H428.724V206.03H417.82V216.124H406.918Z" fill="white"/>
<path d="M296.948 145.467V135.373H307.016V125.279H347.29V145.467H337.222V155.561H327.152V165.654H317.084V175.748H307.016V185.842H296.948V195.936H286.879V206.03H276.809V216.124H266.741V226.217H226.468V206.03H236.537V195.936H246.605V185.842H256.673V175.748H266.741V165.654H276.809V155.561H286.879V145.467H296.948Z" fill="white"/>
<path d="M203.507 145.467V135.373H213.575V125.279H253.848V145.467H243.78V155.561H233.712V165.654H223.644V175.748H213.575V185.842H203.507V195.936H193.438V206.03H183.369V216.124H173.301V226.217H133.027V206.03H143.095V195.936H153.164V185.842H163.232V175.748H173.301V165.654H183.369V155.561H193.438V145.467H203.507Z" fill="white"/>
<path d="M515.842 103.733V2.79504H559.615V83.5455H636.222V103.733H515.842Z" fill="white"/>
<path d="M395.545 103.733V93.6392H384.602V12.8888H395.545V2.79504H504.984V22.9826H428.378V43.1701H461.208V63.3577H428.378V83.5455H504.984V103.733H395.545Z" fill="white"/>
<path d="M253.363 103.733V73.4515H264.306V63.3577H275.252V43.1701H264.306V33.0763H253.363V2.79504H286.196V12.8888H297.139V22.9826H308.082V33.0763H319.026V22.9826H329.969V12.8888H340.913V2.79504H373.745V33.0763H362.8V43.1701H351.856V63.3577H362.8V73.4515H373.745V103.733H340.913V93.6392H329.969V83.5455H319.026V73.4515H308.082V83.5455H297.139V93.6392H286.196V103.733H253.363Z" fill="white"/>
<path d="M133.027 22.9826V2.79504H242.464V22.9826H209.633V83.5455H242.464V103.733H133.027V83.5455H165.858V22.9826H133.027Z" fill="white"/>
<path d="M45.5625 63.3577V103.733H1.78784V2.79504H45.5625H78.3937H111.225V12.8888H122.168V53.2639H111.225V63.3577H45.5625ZM45.5625 22.9826V43.1701H78.3937V22.9826H45.5625Z" fill="white"/>
</svg>
